<svg
    xmlns="http://www.w3.org/2000/svg"
    xmlns:xlink="http://www.w3.org/1999/xlink"
    width="15px" height="15px">
    <path fill-rule="evenodd" fill="#ff4865"
          d="M13.242,14.999 L1.758,14.999 C0.788,14.999 -0.000,14.210 -0.000,13.241 L-0.000,9.168 L1.171,9.168 L1.171,13.241 C1.171,13.564 1.434,13.827 1.758,13.827 L13.242,13.827 C13.565,13.827 13.828,13.564 13.828,13.241 L13.828,9.168 L15.000,9.168 L15.000,13.241 C15.000,14.210 14.211,14.999 13.242,14.999 ZM3.859,7.734 L4.687,6.904 L6.914,9.131 L6.914,-0.001 L8.086,-0.001 L8.086,9.131 L10.312,6.904 L11.141,7.734 L7.500,11.374 L3.859,7.734 Z"/>
</svg>
