<svg
    xmlns="http://www.w3.org/2000/svg"
    xmlns:xlink="http://www.w3.org/1999/xlink"
    width="18px" height="15px">
    <path fill-rule="evenodd" fill="#777777"
          d="M16.687,1.473 C15.799,0.523 14.567,-0.001 13.219,-0.001 C11.322,-0.001 10.121,1.068 9.448,1.964 C9.273,2.197 9.125,2.430 9.000,2.650 C8.875,2.430 8.727,2.197 8.552,1.964 C7.879,1.068 6.678,-0.001 4.781,-0.001 C3.433,-0.001 2.201,0.523 1.313,1.473 C0.466,2.380 -0.000,3.594 -0.000,4.891 C-0.000,6.304 0.585,7.618 1.840,9.027 C2.962,10.285 4.576,11.583 6.446,13.086 C7.142,13.646 7.863,14.225 8.629,14.857 L8.652,14.876 C8.752,14.959 8.876,15.000 9.000,15.000 C9.124,15.000 9.248,14.959 9.347,14.876 L9.370,14.857 C10.137,14.225 10.857,13.646 11.554,13.086 C13.423,11.583 15.037,10.285 16.160,9.027 C17.415,7.618 18.000,6.304 18.000,4.891 C18.000,3.594 17.533,2.380 16.687,1.473 ZM10.870,12.328 C10.269,12.811 9.652,13.308 9.000,13.842 C8.348,13.308 7.730,12.811 7.130,12.328 C3.471,9.388 1.055,7.445 1.055,4.891 C1.055,3.836 1.427,2.856 2.104,2.131 C2.789,1.398 3.740,0.994 4.781,0.994 C6.227,0.994 7.162,1.835 7.691,2.540 C8.166,3.172 8.414,3.809 8.498,4.054 C8.569,4.259 8.772,4.397 9.000,4.397 C9.228,4.397 9.431,4.259 9.501,4.054 C9.586,3.809 9.834,3.172 10.309,2.539 C10.838,1.835 11.773,0.994 13.219,0.994 C14.260,0.994 15.211,1.398 15.895,2.131 C16.572,2.856 16.945,3.836 16.945,4.891 C16.945,7.445 14.528,9.388 10.870,12.328 Z"/>
</svg>
